<?xml version="1.0" encoding="utf-8"?>
<!-- Generator: Adobe Illustrator 14.0.0, SVG Export Plug-In . SVG Version: 6.00 Build 43363)  -->
<!DOCTYPE svg PUBLIC "-//W3C//DTD SVG 1.1//EN" "http://www.w3.org/Graphics/SVG/1.1/DTD/svg11.dtd">
<svg version="1.1" id="Cabinbot" xmlns="http://www.w3.org/2000/svg" xmlns:xlink="http://www.w3.org/1999/xlink" x="0px" y="0px"
	 width="1024px" height="1024px" viewBox="0 0 1024 1024" enable-background="new 0 0 1024 1024" xml:space="preserve">
<path id="Cabinbot_x5F_Head" fill="#8D8D8D" d="M813.3,434c-15.5-62.3-54.9-107.1-98-140c-6.6,4.8-13.4,9.3-20.3,13.6
	c50.2,49.2,80.4,116.3,79.9,183.9C774.3,571.7,651.5,642,512,642c-89.6,0-175.8-28.8-225-75.2c-25-23.5-38-49.5-37.9-75
	c0.5-68.4,29.7-134.1,79-182.8c-6.9-4.3-13.8-8.8-20.4-13.5c-42.1,32.7-80.5,77.1-96.3,138.6H176v128h47.6
	c6.9,11.3,15.6,21.7,26.1,32.1c0.2,0.2,0.4,0.3,0.6,0.5V678h523.5v-84c10.3-10.4,18.9-20.7,25.9-32H848V434H813.3z"/>
<path id="Cabinbot_x5F_Smile" fill="#575757" d="M570.9,495.3L570.9,495.3c-7.5,0-13.6,5.9-13.6,13.2c0,10.8-3.1,19.4-9.2,25.4
	c-6.8,6.6-17.5,10.2-30.1,10.2c-11.8,0-39.3-3.5-39.4-35.7c0-7.3-6.1-13.2-13.6-13.2c0,0,0,0,0,0c-7.5,0-13.6,5.9-13.5,13.2
	c0,19.4,7,35.6,20.2,46.7c11.8,10,27.8,15.3,46.3,15.3c19.9,0,37.5-6.4,49.3-18c11.3-11,17.2-26.2,17.2-44.1
	C584.4,501.2,578.3,495.3,570.9,495.3z"/>
<path id="TopShade_x5F_Hat" fill="#8D8D8D" d="M509.3,151.6l1.7,0c0.7,0,1.4,0.1,2,0.1c28,0,54.8-10,80.8-20.8
	c-23.7-9.7-52.2-14.9-82.5-14.9c-31.2,0-60.5,5.5-84.6,15.8c25.3,10.4,51.4,19.9,78.7,19.9c0.7,0,1.4,0,2-0.1L509.3,151.6
	L509.3,151.6z"/>
<path id="RightShade_x5F_Hat" fill="#2B96E0" d="M506,181.9c1.5,0,3-0.1,4.5-0.1c1.5,0,3,0.1,4.5,0.1c98.3,0,143.9-88.7,225-45.5
	l-35.8,130.9c-50.8,43.7-116.9,70.2-189.2,70.2c-1.5,0-3-0.1-4.5-0.1c-1.5,0-3,0.1-4.5,0.1c-72.3,0-138.4-26.5-189.2-70.2
	l-35.8-130.9C362.1,93.2,407.7,181.9,506,181.9z"/>
<path id="LeftShade_x5F_Hat_1_" fill="#1C7ABD" d="M506,181.9c1,0,3.1,0.2,4.1,0.1v155c-1,0-3,0-4,0c-72.3,0-138.5-26-189.3-69.7
	l-35.8-130.9C362.1,93.2,407.7,181.9,506,181.9z"/>
<path id="LeftEye_x5F_Ring" fill="#575757" d="M380.2,354.7c-39.1,0-70.8,31.6-70.8,70.7c0,39,31.7,70.7,70.8,70.7
	c39.1,0,70.8-31.6,70.8-70.7C451,386.3,419.3,354.7,380.2,354.7z M380.2,485.2c-33,0-59.9-26.8-59.9-59.8s26.9-59.8,59.9-59.8
	c33.1,0,59.9,26.8,59.9,59.8S413.2,485.2,380.2,485.2z"/>
<path id="RightEye_x5F_Ring" fill="#575757" d="M643.8,354.7c-39.1,0-70.8,31.6-70.8,70.7c0,39,31.7,70.7,70.8,70.7
	c39.1,0,70.8-31.6,70.8-70.7C714.6,386.3,682.9,354.7,643.8,354.7z M643.8,485.2c-33,0-59.9-26.8-59.9-59.8s26.9-59.8,59.9-59.8
	c33,0,59.9,26.8,59.9,59.8S676.9,485.2,643.8,485.2z"/>
<path id="LeftEye_x5F_Pupil" fill="#575757" d="M380.5,424.7l16.8-33.3c-5.2-2.6-11-4.1-17.1-4.1c-21.1,0-38.1,17-38.1,38.1
	c0,21,17.1,38.1,38.1,38.1c21.1,0,38.1-17,38.1-38.1c0-2.6-0.3-5.2-0.8-7.7L380.5,424.7z"/>
<path id="RightEye_x5F_Pupil" fill="#575757" d="M644.1,424.7l16.8-33.3c-5.2-2.6-11-4.1-17.1-4.1c-21.1,0-38.1,17-38.1,38.1
	c0,21,17.1,38.1,38.1,38.1c21.1,0,38.1-17,38.1-38.1c0-2.6-0.3-5.2-0.8-7.7L644.1,424.7z"/>
<path id="BottomRight_x5F_Stripe" fill="#FF1C00" d="M512,838h324.9c-23.5,24.9-50,47-78.7,66H512H265.8c-28.7-19-55.1-41.1-78.7-66
	H512z"/>
<path id="BottomLeft_x5F_Stripe_1_" fill="#E6001A" d="M187.1,838H513v66H265.8C237,885,210.6,862.9,187.1,838z"/>
<path id="BottomRight_x5F_Stripe_1_" fill="#FF1C00" d="M512,714h408c-10.3,23.1-22.5,45.2-36.5,66H512H140.5
	c-14-20.8-26.2-42.9-36.5-66H512z"/>
<path id="TopLeft_x5F_Stripe" fill="#E6001A" d="M104,714h409v66H140.5C126.5,759.2,114.3,737.1,104,714z"/>
</svg>
